<svg width="50" height="50" viewBox="0 0 50 50" fill="none" xmlns="http://www.w3.org/2000/svg">
<g opacity="0.3">
<path fill-rule="evenodd" clip-rule="evenodd" d="M50 25C50 38.8071 38.8071 50 25 50C11.1929 50 0 38.8071 0 25C0 11.1929 11.1929 0 25 0C38.8071 0 50 11.1929 50 25ZM26.4083 16.4461C27.1926 17.2239 27.1979 18.4902 26.4201 19.2745L21.8001 23.9332H33C34.1046 23.9332 35 24.8286 35 25.9332C35 27.0378 34.1046 27.9332 33 27.9332H21.8002L26.4201 32.5917C27.1979 33.376 27.1926 34.6423 26.4083 35.4201C25.624 36.1979 24.3577 36.1926 23.5799 35.4083L15.591 27.3526C15.5499 27.3118 15.5106 27.2693 15.4732 27.2251C15.3517 27.0818 15.2535 26.9254 15.1788 26.761C15.0652 26.5113 15.0013 26.2342 15 25.9424C15 25.9393 15 25.9362 15 25.9332C15 25.9269 15 25.9207 15.0001 25.9144C15.0024 25.6583 15.0529 25.4137 15.143 25.1892C15.2396 24.9476 15.3853 24.7211 15.5799 24.5248L23.5799 16.4579C24.3577 15.6736 25.624 15.6683 26.4083 16.4461Z" fill="white"/>
</g>
</svg>
